<?xml version="1.0" encoding="UTF-8"?>
<svg xmlns="http://www.w3.org/2000/svg" xmlns:xlink="http://www.w3.org/1999/xlink" width="338px" height="300px" viewBox="0 0 337 300" version="1.1">
<g id="surface1">
<path style=" stroke:none;fill-rule:nonzero;fill:rgb(90.196078%,90.196078%,90.196078%);fill-opacity:1;" d="M 289.617188 247.878906 C 283.929688 264.5625 276.617188 281.210938 267.25 297.054688 C 267.042969 297.414062 266.832031 297.761719 266.621094 298.117188 L 243.425781 290.769531 C 243.558594 290.429688 243.707031 290.054688 243.863281 289.644531 C 253.21875 265.410156 309.65625 117.75 307.121094 88.636719 C 307.394531 91.019531 316.226562 169.882812 289.617188 247.878906 Z M 289.617188 247.878906 "/>
<path style=" stroke:none;fill-rule:nonzero;fill:rgb(90.196078%,90.196078%,90.196078%);fill-opacity:1;" d="M 271.722656 298.472656 C 271.410156 298.796875 271.085938 299.117188 270.757812 299.429688 L 253.359375 293.917969 C 253.597656 293.632812 253.871094 293.296875 254.183594 292.914062 C 259.339844 286.613281 274.65625 267.738281 289.617188 247.878906 C 305.691406 226.535156 321.355469 204.058594 323.550781 194.824219 C 323.109375 196.925781 309.382812 260.855469 271.722656 298.472656 Z M 271.722656 298.472656 "/>
<path style=" stroke:none;fill-rule:nonzero;fill:rgb(24.705882%,23.921569%,33.72549%);fill-opacity:1;" d="M 280.421875 52.613281 C 280.414062 52.613281 280.410156 52.613281 280.402344 52.613281 L 280.402344 15.253906 C 280.402344 6.828125 273.585938 0 265.175781 0 L 148.414062 0 C 140.003906 0 133.1875 6.828125 133.1875 15.253906 L 133.1875 34.40625 C 132.519531 34.421875 131.980469 34.96875 131.980469 35.640625 L 131.980469 45.128906 C 131.980469 45.800781 132.519531 46.347656 133.1875 46.363281 L 133.1875 56.300781 L 133.125 56.300781 C 132.445312 56.300781 131.890625 56.855469 131.890625 57.539062 L 131.890625 75.882812 C 131.890625 76.566406 132.445312 77.121094 133.125 77.121094 L 133.1875 77.121094 L 133.1875 84.40625 L 133.167969 84.40625 C 132.488281 84.40625 131.933594 84.960938 131.933594 85.644531 L 131.933594 104.171875 C 131.933594 104.855469 132.488281 105.40625 133.167969 105.40625 L 133.1875 105.40625 L 133.1875 284.480469 C 133.1875 292.902344 140.003906 299.730469 148.414062 299.730469 L 265.175781 299.730469 C 273.585938 299.730469 280.402344 292.902344 280.402344 284.480469 L 280.402344 88.945312 C 280.410156 88.945312 280.414062 88.945312 280.421875 88.945312 C 281.636719 88.945312 282.621094 87.960938 282.621094 86.742188 L 282.621094 54.816406 C 282.621094 53.597656 281.636719 52.613281 280.421875 52.613281 Z M 280.421875 52.613281 "/>
<path style=" stroke:none;fill-rule:nonzero;fill:rgb(100%,100%,100%);fill-opacity:1;" d="M 271.3125 19.519531 L 271.3125 280.207031 C 271.308594 286.671875 266.074219 291.914062 259.617188 291.914062 L 153.972656 291.914062 C 147.515625 291.914062 142.28125 286.671875 142.277344 280.207031 L 142.277344 19.519531 C 142.277344 13.050781 147.511719 7.808594 153.972656 7.808594 L 169.78125 7.808594 L 169.78125 9.863281 C 169.78125 15.1875 174.09375 19.507812 179.410156 19.507812 L 233.15625 19.507812 C 238.46875 19.496094 242.765625 15.183594 242.765625 9.863281 L 242.765625 7.828125 L 259.617188 7.828125 C 266.066406 7.828125 271.300781 13.058594 271.3125 19.519531 Z M 271.3125 19.519531 "/>
<path style=" stroke:none;fill-rule:nonzero;fill:rgb(100%,72.156863%,72.156863%);fill-opacity:1;" d="M 99.996094 146.273438 C 98.730469 145.785156 97.3125 145.878906 96.125 146.535156 C 94.9375 147.191406 94.101562 148.34375 93.84375 149.675781 L 56.195312 170.183594 L 62.816406 177.644531 L 97.777344 155.167969 C 100.09375 155.464844 102.265625 153.976562 102.828125 151.707031 C 103.394531 149.4375 102.179688 147.105469 99.996094 146.273438 Z M 99.996094 146.273438 "/>
<path style=" stroke:none;fill-rule:nonzero;fill:rgb(100%,72.156863%,72.156863%);fill-opacity:1;" d="M 90.394531 293.824219 L 95.085938 290.785156 L 85.613281 271.210938 L 78.691406 275.699219 Z M 90.394531 293.824219 "/>
<path style=" stroke:none;fill-rule:nonzero;fill:rgb(18.431373%,18.039216%,25.490196%);fill-opacity:1;" d="M 106.949219 289.285156 L 92.207031 298.839844 L 88.523438 293.132812 L 97.78125 287.132812 C 100.808594 285.171875 104.851562 286.039062 106.8125 289.074219 Z M 106.949219 289.285156 "/>
<path style=" stroke:none;fill-rule:nonzero;fill:rgb(100%,72.156863%,72.156863%);fill-opacity:1;" d="M 37.757812 294.53125 L 43.34375 294.53125 L 46.003906 272.945312 L 37.757812 272.945312 Z M 37.757812 294.53125 "/>
<path style=" stroke:none;fill-rule:nonzero;fill:rgb(18.431373%,18.039216%,25.490196%);fill-opacity:1;" d="M 54.121094 299.730469 L 36.558594 299.730469 L 36.558594 292.933594 L 47.589844 292.933594 C 51.195312 292.933594 54.121094 295.863281 54.121094 299.476562 Z M 54.121094 299.730469 "/>
<path style=" stroke:none;fill-rule:nonzero;fill:rgb(24.705882%,23.921569%,33.72549%);fill-opacity:1;" d="M 165.941406 42.304688 L 154.421875 42.304688 C 153.832031 42.304688 153.355469 41.824219 153.355469 41.234375 C 153.355469 40.644531 153.832031 40.167969 154.421875 40.167969 L 165.941406 40.167969 C 166.53125 40.167969 167.007812 40.644531 167.007812 41.234375 C 167.007812 41.824219 166.53125 42.304688 165.941406 42.304688 Z M 165.941406 42.304688 "/>
<path style=" stroke:none;fill-rule:nonzero;fill:rgb(24.705882%,23.921569%,33.72549%);fill-opacity:1;" d="M 165.941406 45.296875 L 154.421875 45.296875 C 153.832031 45.296875 153.355469 44.816406 153.355469 44.226562 C 153.355469 43.636719 153.832031 43.160156 154.421875 43.160156 L 165.941406 43.160156 C 166.53125 43.160156 167.007812 43.636719 167.007812 44.226562 C 167.007812 44.816406 166.53125 45.296875 165.941406 45.296875 Z M 165.941406 45.296875 "/>
<path style=" stroke:none;fill-rule:nonzero;fill:rgb(24.705882%,23.921569%,33.72549%);fill-opacity:1;" d="M 165.941406 48.289062 L 154.421875 48.289062 C 153.832031 48.289062 153.355469 47.808594 153.355469 47.21875 C 153.355469 46.628906 153.832031 46.152344 154.421875 46.152344 L 165.941406 46.152344 C 166.53125 46.152344 167.007812 46.628906 167.007812 47.21875 C 167.007812 47.808594 166.53125 48.289062 165.941406 48.289062 Z M 165.941406 48.289062 "/>
<path style=" stroke:none;fill-rule:nonzero;fill:rgb(24.705882%,23.921569%,33.72549%);fill-opacity:1;" d="M 255.21875 45.316406 L 254.832031 45.316406 L 254.683594 45.191406 C 255.171875 44.609375 255.441406 43.867188 255.441406 43.101562 C 255.433594 41.347656 254.003906 39.933594 252.25 39.941406 C 250.5 39.949219 249.085938 41.382812 249.09375 43.136719 C 249.105469 44.894531 250.53125 46.308594 252.285156 46.300781 C 253.046875 46.292969 253.78125 46.027344 254.367188 45.539062 L 254.511719 45.664062 L 254.511719 46.054688 L 256.960938 48.515625 L 257.695312 47.777344 Z M 252.285156 45.316406 C 251.066406 45.320312 250.070312 44.335938 250.066406 43.113281 C 250.0625 41.890625 251.046875 40.894531 252.269531 40.890625 C 253.488281 40.886719 254.480469 41.871094 254.488281 43.09375 L 254.488281 43.101562 C 254.492188 44.320312 253.515625 45.308594 252.304688 45.316406 C 252.296875 45.316406 252.292969 45.316406 252.285156 45.316406 Z M 252.285156 45.316406 "/>
<path style=" stroke:none;fill-rule:nonzero;fill:rgb(49.411765%,54.509804%,85.098039%);fill-opacity:1;" d="M 189.40625 81.621094 L 168.714844 81.621094 C 166.121094 81.621094 164.019531 79.515625 164.019531 76.917969 C 164.019531 74.324219 166.121094 72.21875 168.714844 72.21875 L 189.40625 72.21875 C 191.996094 72.21875 194.097656 74.324219 194.097656 76.917969 C 194.097656 79.515625 191.996094 81.621094 189.40625 81.621094 Z M 189.40625 81.621094 "/>
<path style=" stroke:none;fill-rule:nonzero;fill:rgb(90.196078%,90.196078%,90.196078%);fill-opacity:1;" d="M 252.75 91.878906 L 166.582031 91.878906 C 165.167969 91.878906 164.019531 90.730469 164.019531 89.3125 C 164.019531 87.898438 165.167969 86.75 166.582031 86.75 L 252.75 86.75 C 254.164062 86.75 255.308594 87.898438 255.308594 89.3125 C 255.308594 90.730469 254.164062 91.878906 252.75 91.878906 Z M 252.75 91.878906 "/>
<path style=" stroke:none;fill-rule:nonzero;fill:rgb(90.196078%,90.196078%,90.196078%);fill-opacity:1;" d="M 198.234375 102.132812 L 166.582031 102.132812 C 165.167969 102.132812 164.019531 100.984375 164.019531 99.570312 C 164.019531 98.152344 165.167969 97.003906 166.582031 97.003906 L 198.234375 97.003906 C 199.644531 97.003906 200.792969 98.152344 200.792969 99.570312 C 200.792969 100.984375 199.644531 102.132812 198.234375 102.132812 Z M 198.234375 102.132812 "/>
<path style=" stroke:none;fill-rule:nonzero;fill:rgb(49.411765%,54.509804%,85.098039%);fill-opacity:1;" d="M 189.40625 195.296875 L 168.714844 195.296875 C 166.121094 195.296875 164.019531 193.191406 164.019531 190.59375 C 164.019531 188 166.121094 185.894531 168.714844 185.894531 L 189.40625 185.894531 C 191.996094 185.894531 194.097656 188 194.097656 190.59375 C 194.097656 193.191406 191.996094 195.296875 189.40625 195.296875 Z M 189.40625 195.296875 "/>
<path style=" stroke:none;fill-rule:nonzero;fill:rgb(90.196078%,90.196078%,90.196078%);fill-opacity:1;" d="M 252.75 205.550781 L 166.582031 205.550781 C 165.167969 205.550781 164.019531 204.402344 164.019531 202.988281 C 164.019531 201.570312 165.167969 200.425781 166.582031 200.425781 L 252.75 200.425781 C 254.164062 200.425781 255.308594 201.570312 255.308594 202.988281 C 255.308594 204.402344 254.164062 205.550781 252.75 205.550781 Z M 252.75 205.550781 "/>
<path style=" stroke:none;fill-rule:nonzero;fill:rgb(90.196078%,90.196078%,90.196078%);fill-opacity:1;" d="M 198.234375 215.808594 L 166.582031 215.808594 C 165.167969 215.808594 164.019531 214.660156 164.019531 213.246094 C 164.019531 211.828125 165.167969 210.679688 166.582031 210.679688 L 198.234375 210.679688 C 199.644531 210.679688 200.792969 211.828125 200.792969 213.246094 C 200.792969 214.660156 199.644531 215.808594 198.234375 215.808594 Z M 198.234375 215.808594 "/>
<path style=" stroke:none;fill-rule:nonzero;fill:rgb(49.411765%,54.509804%,85.098039%);fill-opacity:1;" d="M 189.40625 247.859375 L 168.714844 247.859375 C 166.121094 247.859375 164.019531 245.753906 164.019531 243.160156 C 164.019531 240.5625 166.121094 238.457031 168.714844 238.457031 L 189.40625 238.457031 C 191.996094 238.457031 194.097656 240.5625 194.097656 243.160156 C 194.097656 245.753906 191.996094 247.859375 189.40625 247.859375 Z M 189.40625 247.859375 "/>
<path style=" stroke:none;fill-rule:nonzero;fill:rgb(90.196078%,90.196078%,90.196078%);fill-opacity:1;" d="M 252.75 258.117188 L 166.582031 258.117188 C 165.167969 258.117188 164.019531 256.96875 164.019531 255.550781 C 164.019531 254.136719 165.167969 252.988281 166.582031 252.988281 L 252.75 252.988281 C 254.164062 252.988281 255.308594 254.136719 255.308594 255.550781 C 255.308594 256.96875 254.164062 258.117188 252.75 258.117188 Z M 252.75 258.117188 "/>
<path style=" stroke:none;fill-rule:nonzero;fill:rgb(90.196078%,90.196078%,90.196078%);fill-opacity:1;" d="M 198.234375 268.371094 L 166.582031 268.371094 C 165.167969 268.371094 164.019531 267.226562 164.019531 265.808594 C 164.019531 264.390625 165.167969 263.246094 166.582031 263.246094 L 198.234375 263.246094 C 199.644531 263.246094 200.792969 264.390625 200.792969 265.808594 C 200.792969 267.226562 199.644531 268.371094 198.234375 268.371094 Z M 198.234375 268.371094 "/>
<path style=" stroke:none;fill-rule:nonzero;fill:rgb(49.411765%,54.509804%,85.098039%);fill-opacity:1;" d="M 264.90625 168.585938 L 100.246094 168.585938 C 98.246094 168.585938 96.625 166.960938 96.621094 164.953125 L 96.621094 120.082031 C 96.625 118.078125 98.246094 116.453125 100.246094 116.449219 L 264.90625 116.449219 C 266.910156 116.453125 268.53125 118.078125 268.535156 120.082031 L 268.535156 164.953125 C 268.53125 166.960938 266.910156 168.585938 264.90625 168.585938 Z M 264.90625 168.585938 "/>
<path style=" stroke:none;fill-rule:nonzero;fill:rgb(18.431373%,18.039216%,25.490196%);fill-opacity:1;" d="M 41.050781 221.972656 C 42.625 233.035156 34.289062 282.050781 35.214844 282.046875 L 47.183594 281.984375 C 47.613281 281.164062 53.105469 254.714844 54.828125 250.472656 C 57.234375 244.582031 59.664062 238.621094 60.609375 232.328125 C 61.5 226.425781 61.0625 220.40625 60.480469 214.460938 C 60.535156 214.105469 60.414062 213.742188 60.15625 213.488281 C 59.898438 213.230469 59.53125 213.117188 59.175781 213.179688 L 43.117188 212.351562 C 39.804688 212.179688 39.019531 211.453125 39.523438 214.710938 C 39.875 217.140625 40.699219 219.507812 41.050781 221.972656 Z M 41.050781 221.972656 "/>
<path style=" stroke:none;fill-rule:nonzero;fill:rgb(18.431373%,18.039216%,25.490196%);fill-opacity:1;" d="M 44.207031 195.070312 C 40.945312 199.769531 37.523438 205.179688 38.605469 210.808594 C 39.429688 215.082031 42.679688 218.394531 45.746094 221.492188 C 58.007812 233.824219 82.183594 288.246094 82.183594 288.246094 C 93.847656 280.765625 81.902344 288.457031 93.742188 280.550781 C 92.691406 280.472656 68.851562 194.613281 66.875 194.496094 C 58.886719 193.964844 51.992188 193.183594 44.207031 195.070312 Z M 44.207031 195.070312 "/>
<path style=" stroke:none;fill-rule:nonzero;fill:rgb(90.196078%,90.196078%,90.196078%);fill-opacity:1;" d="M 57.113281 150.324219 C 55.457031 148.84375 43.808594 144.277344 43.808594 144.277344 C 43.59375 144.25 43.378906 144.257812 43.164062 144.296875 C 42.503906 144.464844 42.199219 145.289062 42.339844 145.957031 C 42.484375 146.625 41.320312 157.59375 41.023438 162.578125 C 40.496094 171.285156 45.613281 191 45.570312 191.601562 C 45.394531 193.753906 44.453125 195.769531 42.921875 197.28125 C 43.320312 197.777344 68.628906 198.773438 70.351562 199.359375 C 70.699219 198.917969 68.390625 167.644531 68.285156 165.878906 C 68.109375 163.195312 59.304688 152.355469 57.113281 150.324219 Z M 57.113281 150.324219 "/>
<path style=" stroke:none;fill-rule:nonzero;fill:rgb(100%,72.156863%,72.156863%);fill-opacity:1;" d="M 39.0625 218.183594 C 40.277344 217.578125 41.160156 216.464844 41.476562 215.144531 C 41.792969 213.824219 41.511719 212.429688 40.703125 211.339844 L 51.378906 152.132812 L 41.414062 152 L 34 210.546875 C 32.222656 212.0625 31.855469 214.671875 33.144531 216.617188 C 34.4375 218.566406 36.980469 219.238281 39.0625 218.183594 Z M 39.0625 218.183594 "/>
<path style=" stroke:none;fill-rule:nonzero;fill:rgb(90.196078%,90.196078%,90.196078%);fill-opacity:1;" d="M 38.976562 156.527344 C 38.5625 156.558594 38.148438 156.449219 37.800781 156.21875 C 37.207031 155.710938 42.042969 147.929688 43 147.8125 C 46.109375 147.453125 49.308594 147.335938 52.324219 148.175781 C 55.339844 149.019531 58.179688 150.933594 59.527344 153.765625 C 60.089844 154.945312 56.007812 160.882812 54.152344 160.007812 C 51.929688 158.964844 41.902344 156.597656 38.976562 156.527344 Z M 38.976562 156.527344 "/>
<path style=" stroke:none;fill-rule:nonzero;fill:rgb(100%,72.156863%,72.156863%);fill-opacity:1;" d="M 61.148438 132.425781 C 61.148438 138.621094 56.136719 143.640625 49.953125 143.640625 C 43.773438 143.640625 38.761719 138.621094 38.761719 132.425781 C 38.761719 126.234375 43.773438 121.214844 49.953125 121.214844 C 56.136719 121.214844 61.148438 126.234375 61.148438 132.425781 Z M 61.148438 132.425781 "/>
<path style=" stroke:none;fill-rule:nonzero;fill:rgb(18.431373%,18.039216%,25.490196%);fill-opacity:1;" d="M 38.960938 150.96875 C 42.121094 151.296875 45.234375 150 47.222656 147.519531 C 49.214844 145.035156 49.8125 141.710938 48.808594 138.691406 C 48.363281 137.351562 47.617188 136.121094 47.210938 134.765625 C 46.800781 133.414062 46.789062 131.8125 47.695312 130.726562 C 49.464844 128.605469 52.878906 129.941406 55.605469 129.519531 C 58.515625 129.066406 60.746094 126.273438 60.976562 123.335938 C 61.210938 120.398438 59.683594 117.488281 57.40625 115.621094 C 55.128906 113.753906 52.195312 112.832031 49.265625 112.542969 C 41.617188 111.792969 34.132812 115.089844 29.515625 121.246094 C 24.902344 127.398438 23.824219 135.523438 26.675781 142.671875 C 27.902344 145.738281 29.898438 148.59375 32.738281 150.273438 C 35.574219 151.953125 39.324219 152.273438 42.152344 150.578125 "/>
<path style=" stroke:none;fill-rule:nonzero;fill:rgb(100%,100%,100%);fill-opacity:1;" d="M 158.808594 136.960938 L 130.203125 136.960938 C 128.386719 136.960938 126.910156 134.855469 126.910156 132.261719 C 126.910156 129.667969 128.386719 127.5625 130.203125 127.5625 L 158.808594 127.5625 C 160.625 127.5625 162.101562 129.667969 162.101562 132.261719 C 162.101562 134.855469 160.625 136.960938 158.808594 136.960938 Z M 158.808594 136.960938 "/>
<path style=" stroke:none;fill-rule:nonzero;fill:rgb(90.196078%,90.196078%,90.196078%);fill-opacity:1;" d="M 235.6875 147.21875 L 129.46875 147.21875 C 128.054688 147.21875 126.910156 146.070312 126.910156 144.65625 C 126.910156 143.238281 128.054688 142.089844 129.46875 142.089844 L 235.6875 142.089844 C 237.101562 142.089844 238.246094 143.238281 238.246094 144.65625 C 238.246094 146.070312 237.101562 147.21875 235.6875 147.21875 Z M 235.6875 147.21875 "/>
<path style=" stroke:none;fill-rule:nonzero;fill:rgb(90.196078%,90.196078%,90.196078%);fill-opacity:1;" d="M 181.167969 157.476562 L 129.46875 157.476562 C 128.054688 157.476562 126.910156 156.328125 126.910156 154.910156 C 126.910156 153.496094 128.054688 152.347656 129.46875 152.347656 L 181.167969 152.347656 C 182.582031 152.347656 183.730469 153.496094 183.730469 154.910156 C 183.730469 156.328125 182.582031 157.476562 181.167969 157.476562 Z M 181.167969 157.476562 "/>
<path style=" stroke:none;fill-rule:nonzero;fill:rgb(24.705882%,23.921569%,33.72549%);fill-opacity:1;" d="M 0 299.140625 L 337 299.140625 L 337 299.996094 L 0 299.996094 Z M 0 299.140625 "/>
</g>
</svg>
