<svg xmlns="http://www.w3.org/2000/svg" xmlns:xlink="http://www.w3.org/1999/xlink" version="1.1" width="500" height="500" viewBox="0 0 1000 1000" xml:space="preserve">
<defs>
</defs>
<rect x="0" y="0" width="100%" height="100%" fill="#ffffff"/>
<g transform="matrix(1.4037 0 0 1.4037 312.3741 91.3358)" id="594417">
<circle style="stroke: none; stroke-width: 1; stroke-dasharray: none; stroke-linecap: butt; stroke-dashoffset: 0; stroke-linejoin: miter; stroke-miterlimit: 4; is-custom-font: none; font-file-url: none; fill: rgb(255,255,255); fill-rule: nonzero; opacity: 1;" cx="0" cy="0" r="12.66462"/>
</g>
<g transform="matrix(1.4037 0 0 1.4037 499.9993 517.545)" id="121305">
<path style="stroke: none; stroke-width: 1; stroke-dasharray: none; stroke-linecap: butt; stroke-dashoffset: 0; stroke-linejoin: miter; stroke-miterlimit: 4; is-custom-font: none; font-file-url: none; fill: rgb(230,230,230); fill-rule: nonzero; opacity: 1;" transform=" translate(-709.8184, -505.0869)" d="M 878.81836 716.08691 h -338 a 8.50981 8.50981 0 0 1 -8.5 -8.5 v -405 a 8.50951 8.50951 0 0 1 8.5 -8.5 h 338 a 8.50982 8.50982 0 0 1 8.5 8.5 v 405 A 8.51013 8.51013 0 0 1 878.81836 716.08691 Z" stroke-linecap="round"/>
</g>
<g transform="matrix(1.4037 0 0 1.4037 499.9987 538.6005)" id="852627">
<path style="stroke: none; stroke-width: 1; stroke-dasharray: none; stroke-linecap: butt; stroke-dashoffset: 0; stroke-linejoin: miter; stroke-miterlimit: 4; is-custom-font: none; font-file-url: none; fill: rgb(63,61,86); fill-rule: nonzero; opacity: 1;" transform=" translate(-709.8181, -520.0869)" d="M 723.31813 274.08691 h -210.5 a 17.02411 17.02411 0 0 0 -17 17 v 407.8 l 2 -0.61 v -407.19 a 15.01828 15.01828 0 0 1 15 -15 H 723.93825 Z m 183.5 0 h -394 a 17.02411 17.02411 0 0 0 -17 17 v 458 a 17.0241 17.0241 0 0 0 17 17 h 394 a 17.0241 17.0241 0 0 0 17 -17 v -458 A 17.02411 17.02411 0 0 0 906.81813 274.08691 Z m 15 475 a 15.01828 15.01828 0 0 1 -15 15 h -394 a 15.01828 15.01828 0 0 1 -15 -15 v -458 a 15.01828 15.01828 0 0 1 15 -15 h 394 a 15.01828 15.01828 0 0 1 15 15 Z" stroke-linecap="round"/>
</g>
<g transform="matrix(1.4037 0 0 1.4037 499.9998 211.5383)" id="1992">
<path style="stroke: none; stroke-width: 1; stroke-dasharray: none; stroke-linecap: butt; stroke-dashoffset: 0; stroke-linejoin: miter; stroke-miterlimit: 4; is-custom-font: none; font-file-url: none; fill: rgb(126,139,217); fill-rule: nonzero; opacity: 1;" transform=" translate(-709.8184, -287.0869)" d="M 801.81836 318.08691 h -184 a 9.01015 9.01015 0 0 1 -9 -9 v -44 a 9.01016 9.01016 0 0 1 9 -9 h 184 a 9.01016 9.01016 0 0 1 9 9 v 44 A 9.01015 9.01015 0 0 1 801.81836 318.08691 Z" stroke-linecap="round"/>
</g>
<g transform="matrix(1.4037 0 0 1.4037 499.9998 142.252)" id="846773">
<circle style="stroke: none; stroke-width: 1; stroke-dasharray: none; stroke-linecap: butt; stroke-dashoffset: 0; stroke-linejoin: miter; stroke-miterlimit: 4; is-custom-font: none; font-file-url: none; fill: rgb(126,139,217); fill-rule: nonzero; opacity: 1;" cx="0" cy="0" r="20"/>
</g>
<g transform="matrix(1.4037 0 0 1.4037 499.9999 144.1604)" id="173400">
<circle style="stroke: none; stroke-width: 1; stroke-dasharray: none; stroke-linecap: butt; stroke-dashoffset: 0; stroke-linejoin: miter; stroke-miterlimit: 4; is-custom-font: none; font-file-url: none; fill: rgb(255,255,255); fill-rule: nonzero; opacity: 1;" cx="0" cy="0" r="12.18187"/>
</g>
<g transform="matrix(1 0 0 1 500 449.9415)" style="" id="928473">
		
<path xml:space="preserve" font-family="Abhaya Libre" font-size="96" font-style="normal" font-weight="bold" style="stroke: none; stroke-width: 1; stroke-dasharray: none; stroke-linecap: butt; stroke-dashoffset: 0; stroke-linejoin: miter; stroke-miterlimit: 4; is-custom-font: none; font-file-url: none; fill: rgb(0,0,0); fill-rule: nonzero; opacity: 1; white-space: pre;" d="M-165.75-22.50L-165.75-22.50Q-165.84-18.85-164.25-18.38L-164.25-18.38Q-163.59-18.19-162.56-18.19L-162.56-18.19L-162.56-36.38L-165.38-36.38Q-169.31-22.22-180.38-20.63L-180.38-20.63Q-181.97-20.44-183.56-20.44L-183.56-20.44Q-200.44-20.63-200.53-47.06L-200.53-47.06Q-200.53-67.60-189.09-72.10L-189.09-72.10Q-186.28-73.13-183-73.13L-183-73.13Q-172.41-73.13-167.72-62.72L-167.72-62.72Q-166.69-60.28-165.84-57.28L-165.84-57.28L-162.84-57.28L-163.13-75.38Q-165.47-75.38-165.94-73.78L-165.94-73.78Q-166.13-72.85-166.13-71.06L-166.13-71.06Q-173.91-75.85-184.13-75.85L-184.13-75.85Q-199.59-75.85-207.75-64.88L-207.75-64.88Q-213.56-57.00-213.56-46.88L-213.56-46.88Q-213.56-34.69-205.78-26.44L-205.78-26.44Q-197.53-17.72-184.13-17.72L-184.13-17.72Q-174.47-17.81-165.75-22.50ZM-135.66-21.10L-135.66-21.10L-140.44-21.10L-140.44-79.60L-157.97-79.60L-157.97-77.16L-150.75-77.16L-150.75-26.35Q-150.75-22.31-153.56-21.47L-153.56-21.47Q-154.97-21.10-157.97-21.10L-157.97-21.10L-157.97-18.66L-133.31-18.66Q-133.31-20.72-134.53-21.00L-134.53-21.00Q-135.09-21.10-135.66-21.10ZM-108.56-21.10L-108.56-21.10L-112.41-21.10L-112.41-58.78L-128.81-58.78L-128.81-56.44L-122.72-56.44L-122.72-26.16Q-122.72-22.13-125.81-21.38L-125.81-21.38Q-126.94-21.10-128.81-21.10L-128.81-21.10L-128.81-18.66L-106.31-18.66Q-106.31-20.81-107.72-21.00L-107.72-21.00Q-108.09-21.10-108.56-21.10ZM-111.47-71.53L-111.47-71.53Q-111.47-75.38-114.94-77.25L-114.94-77.25Q-116.34-78.00-117.84-78.00L-117.84-78.00Q-121.69-78.00-123.47-74.53L-123.47-74.53Q-124.22-73.03-124.22-71.53L-124.22-71.53Q-124.22-67.60-120.75-65.91L-120.75-65.91Q-119.34-65.25-117.84-65.25L-117.84-65.25Q-114-65.25-112.22-68.53L-112.22-68.53Q-111.47-69.94-111.47-71.53ZM-80.44-57.66L-80.44-57.66Q-74.63-57.66-73.50-50.81L-73.50-50.81Q-73.22-49.31-73.22-47.72L-73.22-47.72Q-73.22-43.31-76.41-42.19L-76.41-42.19Q-78.47-41.63-82.41-41.72L-82.41-41.72L-89.63-42.00Q-89.25-55.31-82.59-57.38L-82.59-57.38Q-81.47-57.66-80.44-57.66ZM-63.28-28.13L-63.28-28.13L-65.53-28.88Q-68.25-22.97-74.16-21.10L-74.16-21.10Q-76.13-20.44-78.19-20.44L-78.19-20.44Q-89.16-20.44-89.63-39.10L-89.63-39.10Q-89.63-39.19-89.63-39.28L-89.63-39.28L-80.16-39.10Q-66.09-38.81-63.28-43.13L-63.28-43.13Q-62.34-44.63-62.34-46.69L-62.34-46.69Q-62.34-54.10-69.84-57.85L-69.84-57.85Q-74.53-60.10-80.44-60.10L-80.44-60.10Q-91.22-60.10-96.94-52.31L-96.94-52.31Q-100.97-46.78-100.97-38.91L-100.97-38.91Q-100.97-26.06-91.50-20.53L-91.50-20.53Q-86.44-17.72-80.16-17.72L-80.16-17.72Q-69.47-17.72-64.69-25.31L-64.69-25.31Q-63.84-26.72-63.28-28.13ZM-38.44-21.10L-38.44-21.10L-41.34-21.10L-41.25-44.25Q-40.59-51.75-35.63-54.56L-35.63-54.56Q-33.84-55.50-32.06-55.50L-32.06-55.50Q-26.81-55.50-25.41-49.97L-25.41-49.97Q-24.94-48.28-24.94-46.22L-24.94-46.22L-24.94-26.16Q-24.94-22.22-27.09-21.47L-27.09-21.47Q-28.13-21.10-30.09-21.10L-30.09-21.10L-30.09-18.66L-8.63-18.66Q-8.63-20.72-9.84-21.00L-9.84-21.00Q-10.41-21.10-10.97-21.10L-10.97-21.10L-14.63-21.10L-14.63-44.81Q-14.63-55.88-22.31-59.06L-22.31-59.06Q-24.75-60.10-27.56-60.10L-27.56-60.10Q-34.31-60.10-39-54.75L-39-54.75Q-40.50-52.97-41.44-51.00L-41.44-51.00L-41.91-58.78L-57.66-58.78L-57.66-56.44L-51.66-56.44L-51.66-26.16Q-51.66-22.03-54.75-21.38L-54.75-21.38Q-55.97-21.10-57.66-21.10L-57.66-21.10L-57.66-18.66L-36.09-18.66Q-36.09-20.72-37.31-21.00L-37.31-21.00Q-37.88-21.10-38.44-21.10ZM-5.34-58.50L-5.34-56.06L1.13-56.06L1.13-31.69Q1.97-18.10 13.78-17.63L13.78-17.63Q21.19-17.63 23.81-23.53L23.81-23.53Q24.75-25.60 25.31-28.50L25.31-28.50L22.78-28.88Q20.72-20.53 16.13-20.44L16.13-20.44Q12.19-20.44 11.53-25.78L11.53-25.78Q11.44-26.72 11.44-27.66L11.44-27.66L11.44-56.06L24.56-56.06L24.56-58.50L11.44-58.50L11.44-69.38L1.13-67.41L1.13-58.50L-5.34-58.50ZM43.97-20.35L43.97-20.35Q50.25-20.35 51.75-24.56L51.75-24.56Q52.03-25.50 52.03-26.44L52.03-26.44Q52.03-30.94 46.13-34.03L46.13-34.03Q44.81-34.69 42-35.91L42-35.91Q34.78-39.10 32.34-41.72L32.34-41.72Q29.81-44.72 29.81-48.66L29.81-48.66Q29.81-56.06 37.88-58.88L37.88-58.88Q41.44-60.10 45.84-60.10L45.84-60.10Q52.69-60.10 57.09-57.47L57.09-57.47Q57.09-60.28 58.59-60.56L58.59-60.56Q59.06-60.66 59.53-60.66L59.53-60.66L59.53-48.94L56.72-48.94Q56.34-57.47 47.34-57.56L47.34-57.56Q41.06-57.56 39.56-53.63L39.56-53.63Q39.19-52.60 39.19-51.56L39.19-51.56Q39.19-47.63 44.81-44.72L44.81-44.72Q46.03-44.16 48.75-42.94L48.75-42.94Q56.16-39.75 58.59-37.03L58.59-37.03Q61.41-33.85 61.41-29.53L61.41-29.53Q61.41-21.56 53.16-18.85L53.16-18.85Q49.78-17.72 45.66-17.72L45.66-17.72Q37.78-17.72 32.44-20.81L32.44-20.81Q32.44-18.38 31.22-18.00L31.22-18.00Q30.66-17.91 29.91-17.91L29.91-17.91L29.91-32.16L32.91-32.16Q33.09-20.44 43.97-20.35ZM104.16-21.10L104.16-21.10L101.25-21.10L101.34-44.25Q102-51.75 106.97-54.56L106.97-54.56Q108.75-55.50 110.53-55.50L110.53-55.50Q115.78-55.50 117.19-49.97L117.19-49.97Q117.66-48.28 117.66-46.22L117.66-46.22L117.66-26.16Q117.66-22.22 115.50-21.47L115.50-21.47Q114.47-21.10 112.50-21.10L112.50-21.10L112.50-18.66L133.97-18.66Q133.97-20.72 132.75-21.00L132.75-21.00Q132.19-21.10 131.63-21.10L131.63-21.10L127.97-21.10L127.97-44.81Q127.97-55.88 120.28-59.06L120.28-59.06Q117.84-60.10 115.03-60.10L115.03-60.10Q108.28-60.10 103.59-54.75L103.59-54.75Q102.09-52.97 101.16-51.00L101.16-51.00L100.69-58.78L84.94-58.78L84.94-56.44L90.94-56.44L90.94-26.16Q90.94-22.03 87.84-21.38L87.84-21.38Q86.63-21.10 84.94-21.10L84.94-21.10L84.94-18.66L106.50-18.66Q106.50-20.72 105.28-21.00L105.28-21.00Q104.72-21.10 104.16-21.10ZM150.09-38.91L150.09-38.91Q150.09-53.16 155.16-56.44L155.16-56.44Q157.22-57.66 159.94-57.66L159.94-57.66Q167.06-57.66 168.94-49.60L168.94-49.60Q169.88-45.66 169.88-39.28L169.88-39.28Q169.88-24.19 164.16-21.10L164.16-21.10Q162.28-20.16 159.94-20.16L159.94-20.16Q152.91-20.16 151.03-28.22L151.03-28.22Q150.09-32.25 150.09-38.91ZM160.31-60.10L160.31-60.10Q149.63-60.10 143.44-52.78L143.44-52.78Q138.75-47.16 138.75-39.28L138.75-39.28Q138.75-28.41 146.44-22.22L146.44-22.22Q152.06-17.72 159.66-17.72L159.66-17.72Q170.06-17.72 176.25-25.22L176.25-25.22Q181.13-31.13 181.13-39.28L181.13-39.28Q181.13-50.25 173.25-56.06L173.25-56.06Q167.81-60.10 160.31-60.10ZM185.81-58.50L185.81-56.06L192.28-56.06L192.28-31.69Q193.13-18.10 204.94-17.63L204.94-17.63Q212.34-17.63 214.97-23.53L214.97-23.53Q215.91-25.60 216.47-28.50L216.47-28.50L213.94-28.88Q211.88-20.53 207.28-20.44L207.28-20.44Q203.34-20.44 202.69-25.78L202.69-25.78Q202.59-26.72 202.59-27.66L202.59-27.66L202.59-56.06L215.72-56.06L215.72-58.50L202.59-58.50L202.59-69.38L192.28-67.41L192.28-58.50L185.81-58.50Z"/><path xml:space="preserve" font-family="Abhaya Libre" font-size="96" font-style="normal" font-weight="bold" style="stroke: none; stroke-width: 1; stroke-dasharray: none; stroke-linecap: butt; stroke-dashoffset: 0; stroke-linejoin: miter; stroke-miterlimit: 4; is-custom-font: none; font-file-url: none; fill: rgb(0,0,0); fill-rule: nonzero; opacity: 1; white-space: pre;" d="M-92.58 76.54L-92.58 76.54L-99.23 76.54L-99.23 41.29L-88.55 41.29L-88.55 38.85L-99.23 38.85L-99.23 38.29Q-99.23 23.66-96.33 20.94L-96.33 20.94Q-95.11 20.00-93.52 20.00L-93.52 20.00Q-91.08 20.00-89.39 23.57L-89.39 23.57Q-87.52 27.50-86.77 28.25L-86.77 28.25Q-85.55 29.57-83.86 29.57L-83.86 29.57Q-80.20 29.57-79.27 26.66L-79.27 26.66Q-79.08 26.00-79.08 25.35L-79.08 25.35Q-79.08 21.41-83.86 19.07L-83.86 19.07Q-87.14 17.57-91.64 17.57L-91.64 17.57Q-102.14 17.57-106.73 25.54L-106.73 25.54Q-109.55 30.41-109.55 37.54L-109.55 37.54L-109.55 38.85L-116.86 38.85L-116.86 41.29L-109.55 41.29L-109.55 71.47Q-109.55 75.69-113.77 76.35L-113.77 76.35Q-114.98 76.54-116.67 76.54L-116.67 76.54L-116.67 78.97L-90.33 78.97Q-90.33 76.82-91.73 76.63L-91.73 76.63Q-92.11 76.54-92.58 76.54ZM-73.55 58.72L-73.55 58.72Q-73.55 44.47-68.48 41.19L-68.48 41.19Q-66.42 39.97-63.70 39.97L-63.70 39.97Q-56.58 39.97-54.70 48.04L-54.70 48.04Q-53.77 51.97-53.77 58.35L-53.77 58.35Q-53.77 73.44-59.48 76.54L-59.48 76.54Q-61.36 77.47-63.70 77.47L-63.70 77.47Q-70.73 77.47-72.61 69.41L-72.61 69.41Q-73.55 65.38-73.55 58.72ZM-63.33 37.54L-63.33 37.54Q-74.02 37.54-80.20 44.85L-80.20 44.85Q-84.89 50.47-84.89 58.35L-84.89 58.35Q-84.89 69.22-77.20 75.41L-77.20 75.41Q-71.58 79.91-63.98 79.91L-63.98 79.91Q-53.58 79.91-47.39 72.41L-47.39 72.41Q-42.52 66.50-42.52 58.35L-42.52 58.35Q-42.52 47.38-50.39 41.57L-50.39 41.57Q-55.83 37.54-63.33 37.54ZM9.05 76.54L9.05 76.54L5.39 76.54L5.39 38.85L-10.55 38.85L-10.55 41.19L-4.92 41.19L-5.02 63.79Q-5.48 71.29-10.45 74.29L-10.45 74.29Q-12.33 75.32-14.20 75.32L-14.20 75.32Q-20.39 75.32-21.33 68.29L-21.33 68.29Q-21.52 67.07-21.52 65.85L-21.52 65.85L-21.52 38.85L-37.83 38.85L-37.83 41.19L-31.83 41.19L-31.83 64.35Q-31.73 79.82-18.42 79.91L-18.42 79.91Q-10.83 79.91-6.33 73.54L-6.33 73.54Q-5.39 72.13-4.73 70.72L-4.73 70.72L-4.27 78.97L11.30 78.97Q11.30 76.82 10.08 76.63L10.08 76.63Q9.61 76.54 9.05 76.54ZM34.83 76.54L34.83 76.54L31.92 76.54L32.02 53.38Q32.67 45.88 37.64 43.07L37.64 43.07Q39.42 42.13 41.20 42.13L41.20 42.13Q46.45 42.13 47.86 47.66L47.86 47.66Q48.33 49.35 48.33 51.41L48.33 51.41L48.33 71.47Q48.33 75.41 46.17 76.16L46.17 76.16Q45.14 76.54 43.17 76.54L43.17 76.54L43.17 78.97L64.64 78.97Q64.64 76.91 63.42 76.63L63.42 76.63Q62.86 76.54 62.30 76.54L62.30 76.54L58.64 76.54L58.64 52.82Q58.64 41.75 50.95 38.57L50.95 38.57Q48.52 37.54 45.70 37.54L45.70 37.54Q38.95 37.54 34.27 42.88L34.27 42.88Q32.77 44.66 31.83 46.63L31.83 46.63L31.36 38.85L15.61 38.85L15.61 41.19L21.61 41.19L21.61 71.47Q21.61 75.60 18.52 76.25L18.52 76.25Q17.30 76.54 15.61 76.54L15.61 76.54L15.61 78.97L37.17 78.97Q37.17 76.91 35.95 76.63L35.95 76.63Q35.39 76.54 34.83 76.54ZM100.64 69.88L101.77 78.97L117.52 78.97Q117.52 76.91 116.39 76.63L116.39 76.63Q115.92 76.54 115.17 76.54L115.17 76.54L110.77 76.54L110.77 18.04L91.73 18.04L91.73 20.47L100.36 20.47L100.36 41.94Q95.58 37.54 88.64 37.54L88.64 37.54Q79.36 37.54 73.83 45.04L73.83 45.04Q69.42 51.13 69.42 59.75L69.42 59.75Q69.42 71.38 77.02 76.91L77.02 76.91Q81.23 79.91 86.39 79.91L86.39 79.91Q95.58 79.91 99.89 71.47L99.89 71.47Q100.36 70.63 100.64 69.88L100.64 69.88ZM80.77 58.63L80.77 58.63Q80.77 45.13 86.95 41.47L86.95 41.47Q88.92 40.35 91.08 40.35L91.08 40.35Q97.55 40.35 99.70 48.88L99.70 48.88Q100.55 52.35 100.55 56.85L100.55 56.85Q100.55 69.97 94.73 74.29L94.73 74.29Q92.67 75.79 90.14 75.79L90.14 75.79Q83.20 75.79 81.33 65.66L81.33 65.66Q80.77 62.47 80.77 58.63Z"/></g>
</svg>