<?xml version="1.0" encoding="UTF-8"?>
<svg xmlns="http://www.w3.org/2000/svg" xmlns:xlink="http://www.w3.org/1999/xlink" version="1.1" id="Capa_1" x="0px" y="0px" viewBox="0 0 512.002 512.002" style="enable-background:new 0 0 512.002 512.002;" xml:space="preserve" width="512" height="512">
<g>
	<path style="fill:none;stroke:#000000;stroke-width:15;stroke-linecap:round;stroke-linejoin:round;stroke-miterlimit:10;" d="&#10;&#9;&#9;M476.381,328.21h21.78c3.5,0,6.34,2.83,6.34,6.33v37.27c0,3.5-2.84,6.34-6.34,6.34h-79.62"/>
	
		<line style="fill:none;stroke:#000000;stroke-width:15;stroke-linecap:round;stroke-linejoin:round;stroke-miterlimit:10;" x1="441.381" y1="328.21" x2="418.871" y2="328.21"/>
	<path style="fill:none;stroke:#000000;stroke-width:15;stroke-linecap:round;stroke-linejoin:round;stroke-miterlimit:10;" d="&#10;&#9;&#9;M386.309,322.032h26.059c2.707,0,4.901,2.194,4.901,4.901v52.487c0,2.707-2.194,4.901-4.901,4.901h-25.642"/>
	<path style="fill:none;stroke:#000000;stroke-width:15;stroke-linecap:round;stroke-linejoin:round;stroke-miterlimit:10;" d="&#10;&#9;&#9;M108.602,453.744c3.153-5.057,6.306-10.114,6.306-20.228c0-20.229-12.612-20.229-12.612-40.458c0-20.23,12.612-20.23,12.612-40.46"/>
	<path style="fill:none;stroke:#000000;stroke-width:15;stroke-linecap:round;stroke-linejoin:round;stroke-miterlimit:10;" d="&#10;&#9;&#9;M152.472,386.45v39.716c0,10.201-6.892,19.114-16.765,21.68l-4.596,1.195l-70.726,18.383&#10;&#9;&#9;c-22.678,4.568-41.511,18.403-52.884,37.077"/>
	<path style="fill:none;stroke:#000000;stroke-width:15;stroke-linecap:round;stroke-linejoin:round;stroke-miterlimit:10;" d="&#10;&#9;&#9;M295.662,458.29l-35.587-9.25l-4.596-1.195c-9.873-2.566-16.765-11.479-16.765-21.68v-40.377"/>
	<path style="fill:none;stroke:#000000;stroke-width:15;stroke-linecap:round;stroke-linejoin:round;stroke-miterlimit:10;" d="&#10;&#9;&#9;M383.685,504.5c-7.023-11.532-16.892-21.219-28.754-28.017"/>
	<path style="fill:none;stroke:#000000;stroke-width:15;stroke-linecap:round;stroke-linejoin:round;stroke-miterlimit:10;" d="&#10;&#9;&#9;M88.16,49.017C116.352,23.231,153.894,7.5,195.111,7.5c87.544,0,158.513,70.969,158.513,158.513v16.292"/>
	<path style="fill:none;stroke:#000000;stroke-width:15;stroke-linecap:round;stroke-linejoin:round;stroke-miterlimit:10;" d="&#10;&#9;&#9;M66.481,73.35c-8.63,11.96-15.63,25.17-20.67,39.31"/>
	<path style="fill:none;stroke:#000000;stroke-width:15;stroke-linecap:round;stroke-linejoin:round;stroke-miterlimit:10;" d="&#10;&#9;&#9;M37.771,146.74c-0.78,6.32-1.17,12.75-1.17,19.27"/>
	<path style="fill:none;stroke:#000000;stroke-width:15;stroke-linecap:round;stroke-linejoin:round;stroke-miterlimit:10;" d="&#10;&#9;&#9;M47.008,201.945c-5.426-8.84-10.41-18.389-10.41-35.932"/>
	<path style="fill:none;stroke:#000000;stroke-width:15;stroke-linecap:round;stroke-linejoin:round;stroke-miterlimit:10;" d="&#10;&#9;&#9;M36.598,473.972c0-38.493,24-38.493,24-76.986c0-38.494-24-38.494-24-76.989c0-21.143,7.239-30.673,13.766-41.347"/>
	<path style="fill:none;stroke:#000000;stroke-width:15;stroke-linecap:round;stroke-linejoin:round;stroke-miterlimit:10;" d="&#10;&#9;&#9;M72.776,286.841c-26.947-6.164-47.05-30.285-47.05-59.1v0c0-13.32,10.798-24.118,24.118-24.118H73.59"/>
	<path style="fill:none;stroke:#000000;stroke-width:15;stroke-linecap:round;stroke-linejoin:round;stroke-miterlimit:10;" d="&#10;&#9;&#9;M262.931,362.89l-14.47,13.55c-15,14.06-34.18,21.08-53.35,21.08s-38.35-7.02-53.35-21.08l-40.98-38.37&#10;&#9;&#9;c-7.01-6.57-12.87-14.26-17.33-22.77c-6.48-12.33-9.86-26.04-9.86-39.96v-71.68c6.71,0,12.66-4.29,14.79-10.66l9.22-27.68&#10;&#9;&#9;c6.25-18.75,19.05-34.61,36.06-44.67l61.45-36.36c0,19.01,6.88,36.85,18.67,50.69"/>
	<path style="fill:none;stroke:#000000;stroke-width:15;stroke-linecap:round;stroke-linejoin:round;stroke-miterlimit:10;" d="&#10;&#9;&#9;M242.461,156.12c0.99,0.43,2,0.83,3.02,1.22l50.18,19.08"/>
	<path style="fill:none;stroke:#000000;stroke-width:15;stroke-linecap:round;stroke-linejoin:round;stroke-miterlimit:10;" d="&#10;&#9;&#9;M181.579,280.759c8.502,4.332,18.563,4.332,27.065,0"/>
	<path style="fill:none;stroke:#000000;stroke-width:15;stroke-linecap:round;stroke-linejoin:round;stroke-miterlimit:10;" d="&#10;&#9;&#9;M169.916,325.192c15.829,8.065,34.562,8.065,50.391,0"/>
	<path style="fill:none;stroke:#000000;stroke-width:15;stroke-linecap:round;stroke-linejoin:round;stroke-miterlimit:10;" d="&#10;&#9;&#9;M127.292,192.599c10.522-5.784,23.271-5.784,33.792,0"/>
	<path style="fill:none;stroke:#000000;stroke-width:15;stroke-linecap:round;stroke-linejoin:round;stroke-miterlimit:10;" d="&#10;&#9;&#9;M229.138,192.599c10.522-5.784,23.271-5.784,33.792,0"/>
	
		<line style="fill:none;stroke:#000000;stroke-width:15;stroke-linecap:round;stroke-linejoin:round;stroke-miterlimit:10;" x1="144.188" y1="240.938" x2="144.188" y2="222.937"/>
	
		<line style="fill:none;stroke:#000000;stroke-width:15;stroke-linecap:round;stroke-linejoin:round;stroke-miterlimit:10;" x1="246.035" y1="240.938" x2="246.035" y2="222.937"/>
	
		<polyline style="fill:none;stroke:#000000;stroke-width:15;stroke-linecap:round;stroke-linejoin:round;stroke-miterlimit:10;" points="&#10;&#9;&#9;135.707,447.846 197.409,489.601 255.479,447.846 &#9;"/>
	
		<line style="fill:none;stroke:#000000;stroke-width:15;stroke-linecap:round;stroke-linejoin:round;stroke-miterlimit:10;" x1="195.111" y1="86.198" x2="195.111" y2="10.626"/>
	<path style="fill:none;stroke:#000000;stroke-width:15;stroke-linecap:round;stroke-linejoin:round;stroke-miterlimit:10;" d="&#10;&#9;&#9;M295.662,307.514V164.881c0-16.611-4.833-32.863-13.911-46.775l0,0c-6.373-9.767-14.675-18.129-24.395-24.572l-17.647-11.697"/>
	<path style="fill:none;stroke:#000000;stroke-width:15;stroke-linecap:round;stroke-linejoin:round;stroke-miterlimit:10;" d="&#10;&#9;&#9;M353.621,458.29v42.2c0,3.04-3.24,4.97-5.91,3.52l-20.2-10.97c-19.63-10.66-31.85-31.2-31.85-53.53v-41.99"/>
	
		<line style="fill:none;stroke:#000000;stroke-width:15;stroke-linecap:round;stroke-linejoin:round;stroke-miterlimit:10;" x1="353.621" y1="423.29" x2="353.621" y2="397.52"/>
	
		<line style="fill:none;stroke:#000000;stroke-width:15;stroke-linecap:round;stroke-linejoin:round;stroke-miterlimit:10;" x1="353.624" y1="247.673" x2="353.624" y2="307.514"/>
	<path style="fill:none;stroke:#000000;stroke-width:15;stroke-linecap:round;stroke-linejoin:round;stroke-miterlimit:10;" d="&#10;&#9;&#9;M353.624,247.673c-7.922-18.341-14.343-24.763-32.684-32.684c18.341-7.922,24.763-14.343,32.684-32.684&#10;&#9;&#9;c7.922,18.341,14.343,24.763,32.684,32.684C367.968,222.911,361.546,229.333,353.624,247.673z"/>
	<path style="fill:none;stroke:#000000;stroke-width:15;stroke-linecap:round;stroke-linejoin:round;stroke-miterlimit:10;" d="&#10;&#9;&#9;M483.173,247.673c-15.152,6.544-20.457,11.85-27.001,27.001c-6.544-15.152-11.85-20.457-27.001-27.001&#10;&#9;&#9;c15.152-6.544,20.457-11.85,27.001-27.001C462.716,235.824,468.021,241.129,483.173,247.673z"/>
	<path style="fill:none;stroke:#000000;stroke-width:15;stroke-linecap:round;stroke-linejoin:round;stroke-miterlimit:10;" d="&#10;&#9;&#9;M102.601,59.197c-15.152,6.544-20.457,11.85-27.001,27.001c-6.544-15.152-11.85-20.457-27.001-27.001&#10;&#9;&#9;c15.152-6.544,20.457-11.85,27.001-27.001C82.144,47.347,87.449,52.652,102.601,59.197z"/>
	
		<line style="fill:none;stroke:#000000;stroke-width:15;stroke-linecap:round;stroke-linejoin:round;stroke-miterlimit:10;" x1="325.522" y1="400.525" x2="325.522" y2="417.605"/>
	
		<line style="fill:none;stroke:#000000;stroke-width:15;stroke-linecap:round;stroke-linejoin:round;stroke-miterlimit:10;" x1="325.522" y1="270.083" x2="325.522" y2="307.514"/>
	<path style="fill:none;stroke:#000000;stroke-width:15;stroke-linecap:round;stroke-linejoin:round;stroke-miterlimit:10;" d="&#10;&#9;&#9;M376.213,396.601l-101.37-0.049c-5.148-0.003-9.319-4.178-9.317-9.326l0.033-68.217c0.002-5.148,4.178-9.319,9.326-9.317&#10;&#9;&#9;l101.37,0.049c5.148,0.002,9.319,4.178,9.317,9.326l-0.033,68.217C385.536,392.432,381.361,396.604,376.213,396.601z"/>
	
		<line style="fill:none;stroke:#000000;stroke-width:15;stroke-linecap:round;stroke-linejoin:round;stroke-miterlimit:10;" x1="197.409" y1="492.776" x2="197.409" y2="504.499"/>
</g>















</svg>
