<?xml version="1.0" encoding="UTF-8" standalone="no"?>
<!-- Created with Inkscape (http://www.inkscape.org/) -->

<svg
   version="1.1"
   id="svg1179"
   xml:space="preserve"
   width="682.66669"
   height="682.66669"
   viewBox="0 0 682.66669 682.66669"
   xmlns="http://www.w3.org/2000/svg"
   xmlns:svg="http://www.w3.org/2000/svg"><defs
     id="defs1183"><clipPath
       clipPathUnits="userSpaceOnUse"
       id="clipPath1197"><path
         d="M 0,512 H 512 V 0 H 0 Z"
         id="path1195" /></clipPath></defs><g
     id="g1185"
     transform="matrix(1.3333333,0,0,-1.3333333,0,682.66667)"><g
       id="g1187"
       transform="translate(418.9893,340.8701)"><path
         d="M 0,0 -18.53,50.92"
         style="fill:none;stroke:#000000;stroke-width:15;stroke-linecap:round;stroke-linejoin:round;stroke-miterlimit:10;stroke-dasharray:none;stroke-opacity:1"
         id="path1189" /></g><g
       id="g1191"><g
         id="g1193"
         clip-path="url(#clipPath1197)"><g
           id="g1199"
           transform="translate(468.5894,344.4502)"><path
             d="M 0,0 C -4.01,23.98 -17.85,47.98 -50.97,65.03"
             style="fill:none;stroke:#000000;stroke-width:15;stroke-linecap:round;stroke-linejoin:round;stroke-miterlimit:10;stroke-dasharray:none;stroke-opacity:1"
             id="path1201" /></g><g
           id="g1203"
           transform="translate(385.9292,431.71)"><path
             d="M 0,0 -19.89,54.63"
             style="fill:none;stroke:#000000;stroke-width:15;stroke-linecap:round;stroke-linejoin:round;stroke-miterlimit:10;stroke-dasharray:none;stroke-opacity:1"
             id="path1205" /></g><g
           id="g1207"
           transform="translate(355.8931,451.3066)"><path
             d="m 0,0 c -11.168,-4.065 -23.518,1.693 -27.583,12.862 l -4.166,11.444 c -4.064,11.169 1.694,23.519 12.863,27.584 C -7.717,55.955 4.632,50.196 8.697,39.027 L 12.862,27.583 C 16.928,16.415 11.169,4.065 0,0 Z"
             style="fill:none;stroke:#000000;stroke-width:15;stroke-linecap:round;stroke-linejoin:round;stroke-miterlimit:10;stroke-dasharray:none;stroke-opacity:1"
             id="path1209" /></g><g
           id="g1211"
           transform="translate(35.5396,240.8701)"><path
             d="m 0,0 c -1.15,1.72 -2.24,3.48 -3.27,5.26 -14.05,24.3 -18.12,53.47 -15.42,81.4 3.03,31.42 14.92,62.82 37.58,84.8 5.51,5.35 11.57,10.04 18.02,14.09"
             style="fill:none;stroke:#000000;stroke-width:15;stroke-linecap:round;stroke-linejoin:round;stroke-miterlimit:10;stroke-dasharray:none;stroke-opacity:1"
             id="path1213" /></g><g
           id="g1215"
           transform="translate(104.4092,440.5601)"><path
             d="m 0,0 c 17.09,4.96 35.3,6.7 53.04,5.55 37.15,-2.39 72.66,-16.24 105.83,-33.12 24.26,-12.35 47.63,-26.39 71.55,-39.35"
             style="fill:none;stroke:#000000;stroke-width:15;stroke-linecap:round;stroke-linejoin:round;stroke-miterlimit:10;stroke-dasharray:none;stroke-opacity:1"
             id="path1217" /></g><g
           id="g1219"
           transform="translate(280.9492,52.48)"><path
             d="m 0,0 c 9.09,-8.26 15.03,-19.1 15.03,-33.85 v -4.69 c 0,-3.56 -2.88,-6.44 -6.44,-6.44 h -249.08 c -3.55,0 -6.43,2.88 -6.43,6.44 v 4.69 c 0,43.66 52,53.04 83.78,62.67 3.45,1.04 5.8,4.21 5.8,7.8 v 48.22"
             style="fill:none;stroke:#000000;stroke-width:15;stroke-linecap:round;stroke-linejoin:round;stroke-miterlimit:10;stroke-dasharray:none;stroke-opacity:1"
             id="path1221" /></g><g
           id="g1223"
           transform="translate(206.3994,137.3301)"><path
             d="m 0,0 v -48.23 c 0,-3.59 2.35,-6.76 5.79,-7.8 11.33,-3.43 25.22,-6.83 38.41,-11.76"
             style="fill:none;stroke:#000000;stroke-width:15;stroke-linecap:round;stroke-linejoin:round;stroke-miterlimit:10;stroke-dasharray:none;stroke-opacity:1"
             id="path1225" /></g><g
           id="g1227"
           transform="translate(74.8193,265.8999)"><path
             d="m 0,0 c -23.27,-1.66 -41.53,-17.32 -41.53,-36.39 0,-20.18 20.44,-36.54 45.64,-36.54 0.22,0 0.43,0 0.65,0.01"
             style="fill:none;stroke:#000000;stroke-width:15;stroke-linecap:round;stroke-linejoin:round;stroke-miterlimit:10;stroke-dasharray:none;stroke-opacity:1"
             id="path1229" /></g><g
           id="g1231"
           transform="translate(224.0908,152.501)"><path
             d="m 0,0 c -19.515,-20.042 -43.333,-31.612 -59.091,-31.612 -26.898,0 -77.294,33.712 -89.661,85.732 -1.809,7.567 -2.799,15.521 -2.799,23.82 0,32.119 4.773,56.249 12.777,74.194 12.005,26.917 31.293,39.965 52.703,45.285 8.09,0.61 16.27,0.05 24.239,-1.75 32.241,-7.26 54.44,-34.4 60.621,-66.2 C 5.048,97.179 -9.582,66.239 -8.352,34.119 -7.892,21.979 -4.93,10.47 0,0 c 12.33,-26.23 37.028,-46.001 66.059,-53.071 72.1,-17.56 134.759,32.74 177.399,85.65 2.971,3.68 0.801,9.17 -3.87,9.89 -2.549,0.4 -5.109,0.84 -7.659,1.24 -4.841,0.78 -6.83,6.59 -3.531,10.21 34.121,37.57 49.75,92.11 41.101,142.17 -0.76,4.42 -5.851,6.59 -9.51,4.02 -30.7,-21.49 -72.071,-13.62 -106.031,0"
             style="fill:none;stroke:#000000;stroke-width:15;stroke-linecap:round;stroke-linejoin:round;stroke-miterlimit:10;stroke-dasharray:none;stroke-opacity:1"
             id="path1233" /></g><g
           id="g1235"
           transform="translate(143.812,184.5161)"><path
             d="M 0,0 C 14.127,-6.708 28.254,-6.708 42.382,0"
             style="fill:none;stroke:#000000;stroke-width:15;stroke-linecap:round;stroke-linejoin:round;stroke-miterlimit:10;stroke-dasharray:none;stroke-opacity:1"
             id="path1237" /></g><g
           id="g1239"
           transform="translate(128.8716,251.1748)"><path
             d="M 0,0 V -10.481"
             style="fill:none;stroke:#000000;stroke-width:15;stroke-linecap:round;stroke-linejoin:round;stroke-miterlimit:10;stroke-dasharray:none;stroke-opacity:1"
             id="path1241" /></g><g
           id="g1243"
           transform="translate(114.6177,280.1021)"><path
             d="M 0,0 C 9.502,5.59 19.005,5.59 28.508,0"
             style="fill:none;stroke:#000000;stroke-width:15;stroke-linecap:round;stroke-linejoin:round;stroke-miterlimit:10;stroke-dasharray:none;stroke-opacity:1"
             id="path1245" /></g><g
           id="g1247"
           transform="translate(89.5142,312.9683)"><path
             d="M 0,0 C 14.431,45.848 79.024,94.441 152.482,43.547"
             style="fill:none;stroke:#000000;stroke-width:15;stroke-linecap:round;stroke-linejoin:round;stroke-miterlimit:10;stroke-dasharray:none;stroke-opacity:1"
             id="path1249" /></g><g
           id="g1251"
           transform="translate(198.3081,328.501)"><path
             d="M 0,0 C 28.195,-15.533 54.712,-54.122 63.331,-82.566"
             style="fill:none;stroke:#000000;stroke-width:15;stroke-linecap:round;stroke-linejoin:round;stroke-miterlimit:10;stroke-dasharray:none;stroke-opacity:1"
             id="path1253" /></g><g
           id="g1255"
           transform="translate(392.3096,391.79)"><path
             d="m 0,0 c -4.276,-11.749 -40.561,-111.44 -45.21,-124.21 -1.65,-4.53 -7.95,-4.77 -9.94,-0.38 -9.54,21.1 -25.545,67.851 -2.33,106.44 8.065,13.407 20.86,25.83 40.32,35.84"
             style="fill:none;stroke:#000000;stroke-width:15;stroke-linecap:round;stroke-linejoin:round;stroke-miterlimit:10;stroke-dasharray:none;stroke-opacity:1"
             id="path1257" /></g><g
           id="g1259"
           transform="translate(426.7295,486.3398)"><path
             d="M 0,0 -19.89,-54.63"
             style="fill:none;stroke:#000000;stroke-width:15;stroke-linecap:round;stroke-linejoin:round;stroke-miterlimit:10;stroke-dasharray:none;stroke-opacity:1"
             id="path1261" /></g><g
           id="g1263"
           transform="translate(436.8745,451.3066)"><path
             d="m 0,0 c 11.169,-4.065 23.519,1.693 27.583,12.862 l 4.166,11.444 C 35.814,35.475 30.055,47.825 18.886,51.89 7.718,55.955 -4.632,50.196 -8.697,39.027 L -12.862,27.583 C -16.927,16.415 -11.169,4.065 0,0 Z"
             style="fill:none;stroke:#000000;stroke-width:15;stroke-linecap:round;stroke-linejoin:round;stroke-miterlimit:10;stroke-dasharray:none;stroke-opacity:1"
             id="path1265" /></g><g
           id="g1267"
           transform="translate(396.3838,434.4229)"><path
             d="m 0,0 c -11.88,0 -21.511,-9.631 -21.511,-21.511 0,-11.881 9.631,-21.511 21.511,-21.511 11.88,0 21.511,9.63 21.511,21.511 C 21.511,-9.631 11.88,0 0,0 Z"
             style="fill:none;stroke:#000000;stroke-width:15;stroke-linecap:round;stroke-linejoin:round;stroke-miterlimit:10;stroke-dasharray:none;stroke-opacity:1"
             id="path1269" /></g></g></g></g></svg>
