<svg id="Layer_3" enable-background="new 0 0 64 64" height="512" viewBox="0 0 64 64" width="512" xmlns="http://www.w3.org/2000/svg"><g><path d="m2.464 8.878c1.636 1.636 2.536 3.81 2.536 6.122 0 .552.448 1 1 1s1-.448 1-1c0-2.312.9-4.486 2.536-6.122l1.171-1.171c.255-.255.353-.627.256-.975-.096-.347-.372-.616-.722-.703l-.118-.029c-1.839-.46-3.123-2.104-3.123-4 0-.552-.448-1-1-1s-1 .448-1 1c0 1.896-1.284 3.54-3.122 4l-.12.03c-.35.087-.625.355-.722.703-.096.347.002.719.257.974zm3.536-3.52c.55.838 1.303 1.539 2.203 2.025l-.081.081c-.89.89-1.603 1.91-2.122 3.015-.519-1.105-1.232-2.125-2.122-3.015l-.081-.081c.9-.487 1.653-1.187 2.203-2.025z"/><path d="m58 31c-.552 0-1 .448-1 1 0 1.896-1.284 3.54-3.122 4l-.12.03c-.35.087-.625.355-.722.703s.001.72.256.975l1.171 1.171c1.637 1.635 2.537 3.809 2.537 6.121 0 .552.448 1 1 1s1-.448 1-1c0-2.312.9-4.486 2.536-6.122l1.171-1.171c.255-.255.353-.627.256-.975-.096-.347-.372-.616-.722-.703l-.118-.029c-1.839-.46-3.123-2.104-3.123-4 0-.552-.448-1-1-1zm2.122 6.464c-.89.89-1.603 1.909-2.122 3.015-.519-1.106-1.232-2.125-2.122-3.015l-.081-.081c.899-.487 1.653-1.187 2.203-2.025.55.838 1.303 1.539 2.203 2.025z"/><path d="m50 14c1.263 0 2.36.899 2.608 2.138l.412 2.058c.093.468.503.804.98.804s.887-.336.98-.804l.412-2.058c.248-1.239 1.345-2.138 2.608-2.138.552 0 1-.448 1-1s-.448-1-1-1c-1.263 0-2.36-.899-2.608-2.138l-.412-2.058c-.093-.468-.503-.804-.98-.804s-.887.336-.98.804l-.412 2.058c-.248 1.239-1.345 2.138-2.608 2.138-.552 0-1 .448-1 1s.448 1 1 1zm4-2.273c.294.492.676.922 1.122 1.273-.445.351-.828.781-1.122 1.273-.294-.492-.676-.922-1.122-1.273.445-.351.828-.781 1.122-1.273z"/><path d="m8.392 24.862-.412-2.058c-.093-.468-.503-.804-.98-.804s-.887.336-.98.804l-.412 2.058c-.248 1.239-1.345 2.138-2.608 2.138-.552 0-1 .448-1 1s.448 1 1 1c1.263 0 2.36.899 2.608 2.138l.412 2.058c.093.468.503.804.98.804s.887-.336.98-.804l.412-2.058c.248-1.239 1.345-2.138 2.608-2.138.552 0 1-.448 1-1s-.448-1-1-1c-1.263 0-2.36-.899-2.608-2.138zm-1.392 4.411c-.294-.492-.676-.922-1.122-1.273.445-.351.828-.781 1.122-1.273.294.492.676.922 1.122 1.273-.445.351-.828.781-1.122 1.273z"/><path d="m9 54.53v7.47c0 .552.448 1 1 1h44c.552 0 1-.448 1-1v-7.47c0-3.941-1.903-7.569-5.091-9.837-.184-6.59-.653-13.199-1.405-19.721l-.966-8.374c-.379-3.29-1.973-6.289-4.488-8.444-2.373-2.034-5.401-3.154-8.526-3.154h-5.049c-3.125 0-6.152 1.12-8.525 3.153-2.515 2.156-4.108 5.154-4.488 8.444l-.965 8.374c-.753 6.523-1.222 13.132-1.406 19.721-3.188 2.269-5.091 5.897-5.091 9.838zm8.484-29.329.965-8.374c.322-2.788 1.672-5.329 3.803-7.155 2.011-1.723 4.576-2.672 7.224-2.672h5.049c2.647 0 5.213.949 7.223 2.672 2.131 1.826 3.481 4.368 3.803 7.155l.966 8.374c.964 8.358 1.463 16.861 1.483 25.279-1.058.725-2.161 1.364-3.298 1.919l-.702-15.444-1.998.091.737 16.21c-1.608.625-3.277 1.076-4.984 1.366l-.755-15.669-1.998.096.762 15.833c-.784.07-1.572.118-2.367.118h-2.795c-.795 0-1.582-.048-2.366-.119l.762-15.833-1.998-.096-.755 15.669c-1.707-.29-3.376-.741-4.984-1.366l.737-16.21-1.998-.091-.702 15.444c-1.137-.555-2.24-1.194-3.298-1.919.021-8.417.519-16.92 1.484-25.278zm-3.431 22.115c-.02 1.229-.053 2.459-.053 3.684 0 .323.156.626.419.814 4.75 3.393 10.346 5.186 16.184 5.186h2.795c5.837 0 11.434-1.793 16.184-5.186.262-.188.418-.491.418-.814 0-1.225-.033-2.455-.053-3.684 1.929 1.88 3.053 4.453 3.053 7.214v6.47h-42v-6.47c0-2.761 1.124-5.334 3.053-7.214z"/></g></svg>